<svg width="85" height="85" viewBox="0 0 85 85" fill="none" xmlns="http://www.w3.org/2000/svg">
<g filter="url(#filter0_di_101_452)">
<circle cx="42.4264" cy="42.4264" r="30" transform="rotate(-45 42.4264 42.4264)" fill="#F7D347"/>
<circle cx="42.4264" cy="42.4264" r="29.5" transform="rotate(-45 42.4264 42.4264)" stroke="black" stroke-opacity="0.29"/>
</g>
<mask id="mask0_101_452" style="mask-type:alpha" maskUnits="userSpaceOnUse" x="12" y="12" width="61" height="61">
<circle cx="42.4264" cy="42.4264" r="30" transform="rotate(-45 42.4264 42.4264)" fill="#FFD900"/>
<circle cx="42.4264" cy="42.4264" r="29.5" transform="rotate(-45 42.4264 42.4264)" stroke="black" stroke-opacity="0.29"/>
</mask>
<g mask="url(#mask0_101_452)">
<path d="M17.4203 77.8751L13.3247 73.7796L5.11097 81.9933L0.811764 77.6941L2.87086 75.635L0.811764 73.5759L2.84823 71.5395L0.811764 69.503L2.89349 67.4213L0.834391 65.3622L5.17886 61.0177L19.7283 75.5671L17.4203 77.8751ZM5.11097 77.4226L11.0394 71.4942L5.15623 65.6111L3.34604 67.4213L5.3825 69.4577L3.30078 71.5395L5.33725 73.5759L3.30078 75.6124L5.11097 77.4226ZM24.5239 70.7715L22.4874 68.7351L20.4283 70.7942L18.143 68.5088L20.4283 66.2234L22.4874 68.2825L28.4158 62.3541L24.5239 58.4622L18.3692 64.6169L16.3328 62.5804L14.2737 64.6395L9.97445 60.3403L12.0335 58.2812L9.97445 56.2221L16.3554 49.8412L18.4145 51.9003L20.4962 49.8186L30.9501 60.2724L28.8683 62.3541L30.9048 64.3906L24.5239 70.7715ZM16.3554 62.1505L22.2838 56.2221L18.4145 52.3528L12.4861 58.2812L16.3554 62.1505Z" fill="black"/>
<path d="M9.8401 89.4377L36.358 62.9198L38.6208 65.1826L12.1028 91.7005L9.8401 89.4377Z" fill="black"/>
<path d="M4.77367 17.3375L8.86923 13.242L0.655477 5.02821L4.95469 0.728999L7.01378 2.78809L9.07288 0.729L11.1093 2.76547L13.1458 0.729L15.2275 2.81072L17.2866 0.751628L21.6311 5.09609L7.08166 19.6455L4.77367 17.3375ZM5.22622 5.02821L11.1546 10.9566L17.0377 5.07346L15.2275 3.26327L13.1911 5.29974L11.1093 3.21802L9.07288 5.25448L7.03641 3.21802L5.22622 5.02821ZM11.8773 24.4411L13.9137 22.4047L11.8546 20.3456L14.14 18.0602L16.4254 20.3456L14.3663 22.4047L20.2947 28.333L24.1866 24.4411L18.0319 18.2865L20.0684 16.25L18.0093 14.1909L22.3085 9.89169L24.3676 11.9508L26.4267 9.89169L32.8076 16.2726L30.7485 18.3317L32.8302 20.4134L22.3764 30.8673L20.2947 28.7856L18.2582 30.8221L11.8773 24.4411ZM20.4983 16.2726L26.4267 22.201L30.296 18.3317L24.3676 12.4033L20.4983 16.2726Z" fill="black"/>
<path d="M-6.78894 9.75734L19.729 36.2753L17.4662 38.538L-9.05169 12.0201L-6.78894 9.75734Z" fill="black"/>
<path d="M67.2997 6.40352L71.3952 10.4991L79.609 2.28533L83.9082 6.58454L81.8491 8.64363L83.9082 10.7027L81.8717 12.7392L83.9082 14.7757L81.8265 16.8574L83.8856 18.9165L79.5411 23.2609L64.9917 8.71151L67.2997 6.40352ZM79.609 6.85607L73.6806 12.7845L79.5637 18.6676L81.3739 16.8574L79.3375 14.8209L81.4192 12.7392L79.3827 10.7027L81.4192 8.66626L79.609 6.85607ZM60.1961 13.5071L62.2326 15.5436L64.2917 13.4845L66.577 15.7699L64.2916 18.0552L62.2326 15.9961L56.3042 21.9245L60.1961 25.8164L66.3507 19.6618L68.3872 21.6982L70.4463 19.6391L74.7455 23.9384L72.6864 25.9974L74.7455 28.0565L68.3646 34.4375L66.3055 32.3784L64.2238 34.4601L53.7699 24.0062L55.8516 21.9245L53.8152 19.888L60.1961 13.5071ZM68.3646 22.1282L62.4362 28.0565L66.3055 31.9258L72.2339 25.9974L68.3646 22.1282Z" fill="black"/>
<path d="M74.8799 -5.15909L48.3619 21.3588L46.0992 19.0961L72.6171 -7.42183L74.8799 -5.15909Z" fill="black"/>
<path d="M78.4035 67.9609L74.3079 72.0564L82.5216 80.2702L78.2224 84.5694L76.1633 82.5103L74.1042 84.5694L72.0678 82.5329L70.0313 84.5694L67.9496 82.4877L65.8905 84.5468L61.546 80.2023L76.0955 65.6529L78.4035 67.9609ZM77.9509 80.2702L72.0225 74.3418L66.1394 80.2249L67.9496 82.0351L69.9861 79.9987L72.0678 82.0804L74.1042 80.0439L76.1407 82.0804L77.9509 80.2702ZM71.2999 60.8573L69.2634 62.8937L71.3225 64.9528L69.0371 67.2382L66.7517 64.9528L68.8108 62.8937L62.8825 56.9654L58.9905 60.8573L65.1452 67.0119L63.1087 69.0484L65.1678 71.1075L60.8686 75.4067L58.8095 73.3476L56.7504 75.4067L50.3695 69.0258L52.4286 66.9667L50.3469 64.885L60.8007 54.4311L62.8825 56.5128L64.9189 54.4763L71.2999 60.8573ZM62.6788 69.0258L56.7504 63.0974L52.8811 66.9667L58.8095 72.8951L62.6788 69.0258Z" fill="black"/>
<path d="M89.9661 75.5411L63.4481 49.0231L65.7109 46.7604L92.2288 73.2783L89.9661 75.5411Z" fill="black"/>
</g>
<path d="M37.957 52.384V49.504H35.045V34.72H37.957V31.808H46.981V34.72H49.925V37.92H46.661V35.04H38.277V40.512H46.981V43.36H49.925V49.504H46.981V52.384H37.957ZM38.277 49.184H46.661V43.68H38.277V49.184Z" fill="black"/>
<defs>
<filter id="filter0_di_101_452" x="7.42639" y="7.42642" width="65" height="65" filterUnits="userSpaceOnUse" color-interpolation-filters="sRGB">
<feFlood flood-opacity="0" result="BackgroundImageFix"/>
<feColorMatrix in="SourceAlpha" type="matrix" values="0 0 0 0 0 0 0 0 0 0 0 0 0 0 0 0 0 0 127 0" result="hardAlpha"/>
<feOffset dx="-5" dy="-5"/>
<feComposite in2="hardAlpha" operator="out"/>
<feColorMatrix type="matrix" values="0 0 0 0 0 0 0 0 0 0 0 0 0 0 0 0 0 0 0.25 0"/>
<feBlend mode="normal" in2="BackgroundImageFix" result="effect1_dropShadow_101_452"/>
<feBlend mode="normal" in="SourceGraphic" in2="effect1_dropShadow_101_452" result="shape"/>
<feColorMatrix in="SourceAlpha" type="matrix" values="0 0 0 0 0 0 0 0 0 0 0 0 0 0 0 0 0 0 127 0" result="hardAlpha"/>
<feOffset dx="5" dy="5"/>
<feComposite in2="hardAlpha" operator="arithmetic" k2="-1" k3="1"/>
<feColorMatrix type="matrix" values="0 0 0 0 0 0 0 0 0 0 0 0 0 0 0 0 0 0 0.25 0"/>
<feBlend mode="normal" in2="shape" result="effect2_innerShadow_101_452"/>
</filter>
</defs>
</svg>
