<svg width="85" height="85" viewBox="0 0 85 85" fill="none" xmlns="http://www.w3.org/2000/svg">
<g filter="url(#filter0_di_101_481)">
<circle cx="42.4264" cy="42.4264" r="30" transform="rotate(-135 42.4264 42.4264)" fill="#F7D347"/>
<circle cx="42.4264" cy="42.4264" r="29.5" transform="rotate(-135 42.4264 42.4264)" stroke="black" stroke-opacity="0.29"/>
</g>
<mask id="mask0_101_481" style="mask-type:alpha" maskUnits="userSpaceOnUse" x="12" y="12" width="61" height="61">
<circle cx="42.4264" cy="42.4264" r="30" transform="rotate(-135 42.4264 42.4264)" fill="#FFD900"/>
<circle cx="42.4264" cy="42.4264" r="29.5" transform="rotate(-135 42.4264 42.4264)" stroke="black" stroke-opacity="0.29"/>
</mask>
<g mask="url(#mask0_101_481)">
<path d="M77.8751 67.4325L73.7795 71.5281L81.9933 79.7418L77.6941 84.041L75.635 81.982L73.5759 84.041L71.5394 82.0046L69.503 84.041L67.4212 81.9593L65.3621 84.0184L61.0177 79.674L75.5671 65.1245L77.8751 67.4325ZM77.4226 79.7418L71.4942 73.8135L65.611 79.6966L67.4212 81.5068L69.4577 79.4703L71.5394 81.552L73.5759 79.5156L75.6124 81.552L77.4226 79.7418ZM70.7715 60.3289L68.735 62.3654L70.7941 64.4245L68.5088 66.7099L66.2234 64.4245L68.2825 62.3654L62.3541 56.437L58.4622 60.3289L64.6169 66.4836L62.5804 68.5201L64.6395 70.5792L60.3403 74.8784L58.2812 72.8193L56.2221 74.8784L49.8411 68.4974L51.9002 66.4383L49.8185 64.3566L60.2724 53.9027L62.3541 55.9845L64.3906 53.948L70.7715 60.3289ZM62.1505 68.4974L56.2221 62.569L52.3528 66.4383L58.2812 72.3667L62.1505 68.4974Z" fill="black"/>
<path d="M89.4377 75.0127L62.9198 48.4948L65.1825 46.232L91.7005 72.75L89.4377 75.0127Z" fill="black"/>
<path d="M17.3375 80.0791L13.2419 75.9836L5.02818 84.1973L0.728969 79.8981L2.78806 77.839L0.72897 75.7799L2.76544 73.7435L0.72897 71.707L2.81069 69.6253L0.751597 67.5662L5.09606 63.2217L19.6455 77.7711L17.3375 80.0791ZM5.02818 79.6266L10.9566 73.6982L5.07343 67.8151L3.26324 69.6253L5.29971 71.6617L3.21799 73.7435L5.25445 75.7799L3.21799 77.8164L5.02818 79.6266ZM24.4411 72.9755L22.4046 70.9391L20.3455 72.9982L18.0602 70.7128L20.3455 68.4274L22.4046 70.4865L28.333 64.5581L24.4411 60.6662L18.2864 66.8209L16.25 64.7844L14.1909 66.8435L9.89166 62.5443L11.9508 60.4852L9.89166 58.4261L16.2726 52.0452L18.3317 54.1043L20.4134 52.0225L30.8673 62.4764L28.7856 64.5581L30.822 66.5946L24.4411 72.9755ZM16.2726 64.3545L22.201 58.4261L18.3317 54.5568L12.4033 60.4852L16.2726 64.3545Z" fill="black"/>
<path d="M9.75731 91.6417L36.2752 65.1238L38.538 67.3866L12.0201 93.9045L9.75731 91.6417Z" fill="black"/>
<path d="M6.40349 17.5531L10.4991 13.4576L2.2853 5.2438L6.58451 0.944591L8.6436 3.00369L10.7027 0.944592L12.7392 2.98106L14.7756 0.944592L16.8574 3.02631L18.9165 0.967219L23.2609 5.31168L8.71148 19.8611L6.40349 17.5531ZM6.85604 5.2438L12.7844 11.1722L18.6675 5.28906L16.8574 3.47886L14.8209 5.51533L12.7392 3.43361L10.7027 5.47007L8.66623 3.43361L6.85604 5.2438ZM13.5071 24.6567L15.5435 22.6202L13.4845 20.5611L15.7698 18.2758L18.0552 20.5611L15.9961 22.6202L21.9245 28.5486L25.8164 24.6567L19.6617 18.5021L21.6982 16.4656L19.6391 14.4065L23.9383 10.1073L25.9974 12.1664L28.0565 10.1073L34.4374 16.4882L32.3783 18.5473L34.4601 20.629L24.0062 31.0829L21.9245 29.0012L19.888 31.0376L13.5071 24.6567ZM22.1281 16.4882L28.0565 22.4166L31.9258 18.5473L25.9974 12.6189L22.1281 16.4882Z" fill="black"/>
<path d="M-5.15912 9.97293L21.3588 36.4908L19.0961 38.7536L-7.42186 12.2357L-5.15912 9.97293Z" fill="black"/>
<path d="M67.9608 6.44937L72.0564 10.5449L80.2701 2.33118L84.5693 6.63039L82.5102 8.68948L84.5693 10.7486L82.5329 12.785L84.5693 14.8215L82.4876 16.9032L84.5467 18.9623L80.2022 23.3068L65.6528 8.75737L67.9608 6.44937ZM80.2701 6.90192L74.3417 12.8303L80.2249 18.7134L82.0351 16.9032L79.9986 14.8668L82.0803 12.785L80.0439 10.7486L82.0803 8.71211L80.2701 6.90192ZM60.8572 13.553L62.8937 15.5894L64.9528 13.5303L67.2382 15.8157L64.9528 18.1011L62.8937 16.042L56.9653 21.9704L60.8572 25.8623L67.0119 19.7076L69.0483 21.7441L71.1074 19.685L75.4067 23.9842L73.3476 26.0433L75.4067 28.1024L69.0257 34.4833L66.9666 32.4242L64.8849 34.506L54.431 24.0521L56.5128 21.9704L54.4763 19.9339L60.8572 13.553ZM69.0257 22.174L63.0973 28.1024L66.9666 31.9717L72.895 26.0433L69.0257 22.174Z" fill="black"/>
<path d="M75.541 -5.11324L49.0231 21.4047L46.7603 19.1419L73.2783 -7.37599L75.541 -5.11324Z" fill="black"/>
</g>
<path d="M28.082 53.2368V50.3568H25.17V47.1248H28.402V50.0368H36.786V44.5328H28.082V41.3648H36.786V35.8928H28.402V38.7728H25.17V35.5728H28.082V32.6608H37.106V35.5728H40.05V41.6528H37.106V44.2128H40.05V50.3568H37.106V53.2368H28.082ZM55.536 53.2368V47.4448H43.92V41.3648H46.832V38.4528H49.712V35.5728H52.656V32.6608H58.8V53.2368H55.536ZM47.152 44.2128H55.536V35.8928H52.976V38.7728H50.032V41.6528H47.152V44.2128Z" fill="black"/>
<defs>
<filter id="filter0_di_101_481" x="7.42639" y="7.42641" width="65" height="65" filterUnits="userSpaceOnUse" color-interpolation-filters="sRGB">
<feFlood flood-opacity="0" result="BackgroundImageFix"/>
<feColorMatrix in="SourceAlpha" type="matrix" values="0 0 0 0 0 0 0 0 0 0 0 0 0 0 0 0 0 0 127 0" result="hardAlpha"/>
<feOffset dx="-5" dy="-5"/>
<feComposite in2="hardAlpha" operator="out"/>
<feColorMatrix type="matrix" values="0 0 0 0 0 0 0 0 0 0 0 0 0 0 0 0 0 0 0.25 0"/>
<feBlend mode="normal" in2="BackgroundImageFix" result="effect1_dropShadow_101_481"/>
<feBlend mode="normal" in="SourceGraphic" in2="effect1_dropShadow_101_481" result="shape"/>
<feColorMatrix in="SourceAlpha" type="matrix" values="0 0 0 0 0 0 0 0 0 0 0 0 0 0 0 0 0 0 127 0" result="hardAlpha"/>
<feOffset dx="5" dy="5"/>
<feComposite in2="hardAlpha" operator="arithmetic" k2="-1" k3="1"/>
<feColorMatrix type="matrix" values="0 0 0 0 0 0 0 0 0 0 0 0 0 0 0 0 0 0 0.25 0"/>
<feBlend mode="normal" in2="shape" result="effect2_innerShadow_101_481"/>
</filter>
</defs>
</svg>
